# xmcd
#
# Track frame offsets:
#	150
#	12756
#	27773
#	39714
#	61962
#	77689
#	87931
#	104736
#	115773
#	131099
#	147234
#	162879
#	175633
#	186211
#	201066
#
# Disc length: 2920 seconds
#
# Revision: 0
# Processed by: cddbd v1.5.2PL0 Copyright (c) Steve Scherf et al.
# Submitted via: audiograbber 1.83.01
#
DISCID=c30b660f
DTITLE=Various Artist - NS 015
DYEAR=1900
DGENRE=Karaoke
TTITLE0=Ray Price - Heartaches By The Numbers
TTITLE1=Reba McEntire - Cathy's Clown
TTITLE2=Ray Charles - Busted
TTITLE3=Robin Lee - Black Velvet
TTITLE4=Eddy Arnold - You Don't Know Me
TTITLE5=Merle Haggard - Mama Tried
TTITLE6=Hank Williams - Wedding Bells
TTITLE7=Charley Pride - Is Anybody Goin' To San Antone
TTITLE8=Tanya Tucker - Texas, When I Die
TTITLE9=Kentucky Headhunters - Walk Softly On This Heart Of Mine
TTITLE10=Mel Street - Old Flames
TTITLE11=Dusty Springfield - Son Of A Preacher Man
TTITLE12=Willie Nelson - Mountain Dew
TTITLE13=Hank Williams Jr. - Gonna Have A Party
TTITLE14=Dolly Parton - Yellow Roses
EXTD=
EXTT0=
EXTT1=
EXTT2=
EXTT3=
EXTT4=
EXTT5=
EXTT6=
EXTT7=
EXTT8=
EXTT9=
EXTT10=
EXTT11=
EXTT12=
EXTT13=
EXTT14=
PLAYORDER=
